<svg xmlns="http://www.w3.org/2000/svg" width="21" height="21" viewBox="0 0 21 21" fill="none" class="footer-social-icon"><path d="M10.5322 0.0110768C12.5345 0.0110768 14.5369 0.0394822 16.5382 0.00452175C18.9426 -0.0380863 21.0192 2.04971 20.9974 4.46963C20.9613 8.4737 20.9526 12.4789 21.0007 16.4829C21.0302 18.9411 18.9338 21.0311 16.4759 21.0005C12.4909 20.9502 8.50358 20.9524 4.5185 21.0005C2.06825 21.03 -0.030257 18.94 0.000330232 16.4742C0.0494883 12.4887 0.0483959 8.50101 0.000330232 4.51552C-0.0280722 2.0661 2.05951 -0.0588441 4.52615 0.0012442C6.52743 0.0504074 8.5298 0.0110768 10.5322 0.0110768Z" fill="white"></path><path d="M16.1962 6.6097C16.9595 7.26367 16.9398 8.7246 16.9751 9.64785C17.0142 10.6627 17.0745 13.16 16.5615 14.007C15.9949 14.9422 14.5851 14.8603 13.6086 14.9112C11.6336 15.0142 9.54796 15.0324 7.56487 14.9405C6.91427 14.9104 5.64116 14.8677 5.08384 14.5948C4.00046 14.0636 4.06506 12.4011 4.02567 11.3763C3.98859 10.4156 3.97961 9.44341 4.08244 8.4832C4.21308 7.2668 4.41296 6.45615 5.78281 6.23579C7.10371 6.02311 15.1293 5.69555 16.1962 6.6097ZM9.19948 8.63902V12.3849L12.5533 10.498L9.19948 8.63902Z" fill="#272523"></path></svg>